HIERARCHY
ROOT Hips
{
	OFFSET 0.000000 0.000000 0.000000
	CHANNELS 6 Xposition Yposition Zposition Zrotation Yrotation Xrotation 
	JOINT LowerBack
	{
		OFFSET 0.000000 0.000000 0.000000
		CHANNELS 3 Zrotation Yrotation Xrotation
		JOINT Spine
		{
			OFFSET 0.028270 2.035590 -0.193380
			CHANNELS 3 Zrotation Yrotation Xrotation
			JOINT Spine1
			{
				OFFSET 0.056720 2.048850 -0.042750
				CHANNELS 3 Zrotation Yrotation Xrotation
				JOINT Neck
				{
					OFFSET 0.000000 0.000000 0.000000
					CHANNELS 3 Zrotation Yrotation Xrotation
					JOINT Neck1
					{
						OFFSET -0.054170 1.746240 0.172020
						CHANNELS 3 Zrotation Yrotation Xrotation
						JOINT Head
						{
							OFFSET 0.104070 1.761360 -0.123970
							CHANNELS 3 Zrotation Yrotation Xrotation
							End Site
							{
								OFFSET 0.000000 0.000000 0.000000
							}
						}
					}
				}
				JOINT LeftShoulder
				{
					OFFSET 0.000000 0.000000 0.000000
					CHANNELS 3 Zrotation Yrotation Xrotation
					JOINT LeftArm
					{
						OFFSET 3.362410 1.200890 -0.311210
						CHANNELS 3 Zrotation Yrotation Xrotation
						JOINT LeftForeArm
						{
							OFFSET 4.983000 -0.000000 -0.000000
							CHANNELS 3 Zrotation Yrotation Xrotation
							JOINT LeftHand
							{
								OFFSET 3.483560 -0.000000 -0.000000
								CHANNELS 3 Zrotation Yrotation Xrotation
								JOINT LeftFingerBase
								{
									OFFSET 0.000000 0.000000 0.000000
									CHANNELS 3 Zrotation Yrotation Xrotation
									JOINT LeftHandIndex1
									{
										OFFSET 0.715260 -0.000000 -0.000000
										CHANNELS 3 Zrotation Yrotation Xrotation
										End Site
										{
											OFFSET 0.000000 0.000000 0.000000
										}
									}
								}
								JOINT LThumb
								{
									OFFSET 0.000000 0.000000 0.000000
									CHANNELS 3 Zrotation Yrotation Xrotation
									End Site
									{
										OFFSET 0.000000 0.000000 0.000000
									}
								}
							}
						}
					}
				}
				JOINT RightShoulder
				{
					OFFSET 0.000000 0.000000 0.000000
					CHANNELS 3 Zrotation Yrotation Xrotation
					JOINT RightArm
					{
						OFFSET -3.136600 1.374050 -0.404650
						CHANNELS 3 Zrotation Yrotation Xrotation
						JOINT RightForeArm
						{
							OFFSET -5.241900 -0.000000 -0.000000
							CHANNELS 3 Zrotation Yrotation Xrotation
							JOINT RightHand
							{
								OFFSET -3.444170 -0.000000 -0.000000
								CHANNELS 3 Zrotation Yrotation Xrotation
								JOINT RightFingerBase
								{
									OFFSET 0.000000 0.000000 0.000000
									CHANNELS 3 Zrotation Yrotation Xrotation
									JOINT RightHandIndex1
									{
										OFFSET -0.622530 -0.000000 -0.000000
										CHANNELS 3 Zrotation Yrotation Xrotation
										End Site
										{
											OFFSET 0.000000 0.000000 0.000000
										}
									}
								}
								JOINT RThumb
								{
									OFFSET 0.000000 0.000000 0.000000
									CHANNELS 3 Zrotation Yrotation Xrotation
									End Site
									{
										OFFSET 0.000000 0.000000 0.000000
									}
								}
							}
						}
					}
				}
			}
		}
	}
}
}
MOTION
Frames: 15
Frame Time: 0.008333
9.982105 21.487617 1.076163 55.847241 -81.549929 -10.804996 -3.636665 -2.634442 -5.165219 -0.545786 -2.428304 -3.205114 -1.383953 -2.612234 3.285709 5.718285 -20.385733 -9.017430 -0.183850 0.026185 -0.558537 0.000000 0.000000 0.000000 11.954994 9.450619 1.146985 -40.245713 -5.044041 -13.741246 -179.212985 -78.867721 -179.976283 -2.606546 -0.667236 0.026943 -0.008191 0.478061 0.000000 0.000000 0.000000 0.000000 0.000000 0.000000 0.000000 0.108005 -16.589381 1.953671 17.216831 12.596903 -0.529693 179.625195 84.115055 179.988676 -3.573334 3.368370 -0.121195 0.167898 -0.369689 -0.000000 0.000000 0.000000 0.000000 0.000000 0.000000 0.000000 
9.912451 21.564123 1.059549 56.135876 -81.211705 -9.296712 -3.615581 -2.680328 -5.378910 -0.514667 -2.479181 -3.243078 -1.237449 -2.670946 3.426221 5.546053 -20.885167 -9.034404 -0.026784 0.040385 -0.581312 0.000000 0.000000 0.000000 12.248678 9.637854 1.172879 -39.568994 -4.806474 -15.058038 -179.214652 -78.893469 -179.974771 -2.801059 -0.599332 0.027172 -0.006003 0.479366 0.000000 0.000000 0.000000 0.000000 0.000000 0.000000 0.000000 -0.533197 -17.079737 1.962851 16.221979 10.729843 -2.787438 179.582457 83.095147 179.989124 -3.407621 3.311217 -0.114172 0.166627 -0.373418 -0.000000 0.000000 0.000000 0.000000 0.000000 0.000000 0.000000 
9.841207 21.627447 1.043734 56.401316 -80.963432 -7.734094 -3.536907 -2.730625 -5.640388 -0.473107 -2.538756 -3.291176 -1.112269 -2.738050 3.573262 5.364214 -21.332777 -9.053359 0.120741 0.053972 -0.605525 0.000000 0.000000 0.000000 12.525902 9.823890 1.210096 -38.809967 -4.313903 -16.247904 -179.206705 -78.767438 -179.972984 -3.038518 -0.518873 0.027201 -0.003158 0.479027 0.000000 0.000000 0.000000 0.000000 0.000000 0.000000 0.000000 -1.138946 -17.507957 1.990049 15.276989 8.885861 -4.976735 179.546029 82.191026 179.989755 -3.226112 3.277095 -0.107450 0.164957 -0.376917 0.000000 0.000000 0.000000 0.000000 0.000000 0.000000 0.000000 
9.767909 21.678623 1.028360 56.668026 -80.814125 -6.179741 -3.413297 -2.786751 -5.915549 -0.424593 -2.607660 -3.341546 -1.011784 -2.813799 3.722637 5.192200 -21.713682 -9.088381 0.256745 0.067081 -0.635545 0.000000 0.000000 0.000000 12.778298 10.028038 1.266160 -37.983956 -3.576703 -17.339987 -179.187677 -78.483288 -179.970890 -3.321968 -0.433603 0.027127 0.000296 0.477398 0.000000 0.000000 0.000000 0.000000 0.000000 0.000000 0.000000 -1.684316 -17.858952 2.035077 14.381419 7.081267 -7.109541 179.514738 81.378476 179.990532 -3.031308 3.258289 -0.100828 0.162884 -0.380200 -0.000000 0.000000 0.000000 0.000000 0.000000 0.000000 0.000000 
9.692214 21.719011 1.013092 56.948279 -80.766696 -4.684559 -3.257750 -2.849491 -6.165596 -0.372758 -2.686050 -3.385200 -0.938249 -2.897909 3.869032 5.048542 -22.014690 -9.151987 0.380196 0.079905 -0.675329 0.000000 0.000000 0.000000 12.999364 10.265177 1.346718 -37.113594 -2.618537 -18.367920 -179.156778 -78.043540 -179.968484 -3.650844 -0.351988 0.027053 0.004324 0.474915 0.000000 0.000000 0.000000 0.000000 0.000000 0.000000 0.000000 -2.150549 -18.119786 2.097503 13.546937 5.323911 -9.200974 179.487043 80.630992 179.991435 -2.823229 3.248010 -0.094005 0.160391 -0.383255 0.000000 0.000000 0.000000 0.000000 0.000000 0.000000 0.000000 
9.614144 21.750160 0.997626 57.245584 -80.818543 -3.292064 -3.083084 -2.918982 -6.351210 -0.321205 -2.773509 -3.413114 -0.892632 -2.989487 4.006061 4.948871 -22.224300 -9.253092 0.490722 0.092616 -0.727766 0.000000 0.000000 0.000000 13.184648 10.540109 1.455207 -36.226024 -1.467235 -19.367191 -179.114125 -77.461536 -179.965815 -4.017853 -0.281606 0.027080 0.008819 0.471999 0.000000 0.000000 0.000000 0.000000 0.000000 0.000000 0.000000 -2.526173 -18.279086 2.176791 12.793743 3.614667 -11.266055 179.461216 79.922563 179.992462 -2.600207 3.241964 -0.086879 0.157443 -0.386076 0.000000 0.000000 0.000000 0.000000 0.000000 0.000000 0.000000 
9.533726 21.773677 0.981687 57.564973 -80.962690 -2.041253 -2.902302 -2.994686 -6.438343 -0.273596 -2.868856 -3.417479 -0.874574 -3.086912 4.127033 4.904715 -22.333637 -9.395612 0.588186 0.105302 -0.794271 0.000000 0.000000 0.000000 13.332232 10.845685 1.592743 -35.349946 -0.150670 -20.371999 -179.060535 -76.757716 -179.962969 -4.411354 -0.227132 0.027409 0.013619 0.468974 0.000000 0.000000 0.000000 0.000000 0.000000 0.000000 0.000000 -2.806253 -18.327742 2.272085 12.147765 1.950133 -13.314403 179.435509 79.229574 179.993616 -2.361346 3.238059 -0.079250 0.154038 -0.388655 0.000000 0.000000 0.000000 0.000000 0.000000 0.000000 0.000000 
9.450990 21.791064 0.965099 57.916032 -81.188816 -0.966547 -2.728096 -3.075602 -6.401757 -0.233369 -2.970304 -3.392241 -0.882173 -3.188022 4.226425 4.922578 -22.344059 -9.578646 0.673086 0.117998 -0.874848 0.000000 0.000000 0.000000 13.441528 11.169014 1.757836 -34.513540 1.299115 -21.409553 -178.997476 -75.956629 -179.960061 -4.816154 -0.189374 0.028137 0.018515 0.466035 0.000000 0.000000 0.000000 0.000000 0.000000 0.000000 0.000000 -2.992951 -18.267638 2.380993 11.635747 0.341800 -15.347054 179.408524 78.535950 179.994891 -2.108307 3.237049 -0.071116 0.150217 -0.391039 0.000000 0.000000 0.000000 0.000000 0.000000 0.000000 0.000000 
9.366084 21.803905 0.947734 58.312234 -81.484828 -0.099767 -2.572459 -3.160227 -6.226778 -0.203572 -3.075422 -3.333356 -0.912211 -3.290097 4.300945 5.003649 -22.271749 -9.796946 0.746689 0.130706 -0.968154 0.000000 0.000000 0.000000 13.514873 11.497661 1.946190 -33.742871 2.839011 -22.495617 -178.927536 -75.092015 -179.957214 -5.216047 -0.166218 0.029170 0.023316 0.463294 0.000000 0.000000 0.000000 0.000000 0.000000 0.000000 0.000000 -3.093802 -18.117204 2.498827 11.280472 -1.175619 -17.352936 179.379800 77.843040 179.996263 -1.845519 3.241742 -0.062876 0.146047 -0.393319 0.000000 0.000000 0.000000 0.000000 0.000000 0.000000 0.000000 
9.278977 21.813094 0.929489 58.785506 -81.836778 0.518667 -2.451023 -3.245600 -5.914915 -0.188649 -3.180050 -3.242687 -0.961704 -3.388789 4.341914 5.141245 -22.089445 -10.032394 0.805377 0.142702 -1.068684 0.000000 0.000000 0.000000 13.559767 11.765385 2.154448 -33.053655 4.492801 -23.646600 -178.852010 -74.166934 -179.954604 -5.591755 -0.151139 0.030303 0.027702 0.460476 0.000000 0.000000 0.000000 0.000000 0.000000 0.000000 0.000000 -3.119021 -17.841400 2.625891 11.096136 -2.654445 -19.311864 179.347258 77.114670 179.997706 -1.579605 3.253613 -0.054529 0.141705 -0.395423 0.000000 0.000000 0.000000 0.000000 0.000000 0.000000 0.000000 
9.189817 21.819377 0.910386 59.365202 -82.232331 0.858931 -2.371981 -3.329513 -5.474729 -0.189814 -3.281144 -3.119883 -1.025008 -3.481052 4.355170 5.329112 -21.865764 -10.277124 0.854180 0.154224 -1.174069 0.000000 0.000000 0.000000 13.582194 11.997045 2.372381 -32.466560 6.157030 -24.839527 -178.775750 -73.238567 -179.952280 -5.935710 -0.137176 0.031237 0.031742 0.457642 0.000000 0.000000 0.000000 0.000000 0.000000 0.000000 0.000000 -3.083329 -17.520302 2.748876 11.085213 -3.961610 -21.184181 179.312891 76.393425 179.999148 -1.322130 3.277675 -0.046573 0.137325 -0.397637 0.000000 0.000000 0.000000 0.000000 0.000000 0.000000 0.000000 
9.098448 21.822941 0.890345 60.107098 -82.658087 0.871515 -2.348727 -3.407626 -4.933412 -0.210644 -3.373448 -2.973242 -1.098761 -3.561830 4.335862 5.551869 -21.577569 -10.506259 0.888709 0.164281 -1.276137 0.000000 0.000000 0.000000 13.592785 12.124509 2.594527 -31.982700 7.856380 -26.063388 -178.700641 -72.309025 -179.950370 -6.237044 -0.114994 0.031373 0.035309 0.454326 0.000000 0.000000 0.000000 0.000000 0.000000 0.000000 0.000000 -2.998830 -17.123369 2.866755 11.235909 -5.145316 -22.926213 179.275545 75.653137 -179.999454 -1.081295 3.313839 -0.039209 0.133105 -0.399852 0.000000 0.000000 0.000000 0.000000 0.000000 0.000000 0.000000 
9.004682 21.823672 0.869456 61.062826 -83.103540 0.517533 -2.386948 -3.475812 -4.323589 -0.251867 -3.452461 -2.810347 -1.178611 -3.627080 4.288617 5.795178 -21.256677 -10.703617 0.909690 0.172498 -1.369172 0.000000 0.000000 0.000000 13.601911 12.143266 2.811188 -31.603348 9.532184 -27.278135 -178.629852 -71.405604 -179.948882 -6.496464 -0.076584 0.030211 0.038601 0.450337 0.000000 0.000000 0.000000 0.000000 0.000000 0.000000 0.000000 -2.877860 -16.687240 2.970692 11.521988 -6.148791 -24.483857 179.236230 74.908725 -179.998155 -0.865950 3.362628 -0.032536 0.129192 -0.402146 0.000000 0.000000 0.000000 0.000000 0.000000 0.000000 0.000000 
8.908059 21.820779 0.847750 62.300464 -83.558718 -0.252500 -2.490260 -3.529526 -3.685831 -0.313837 -3.513541 -2.642048 -1.261441 -3.672916 4.216802 6.042326 -20.910705 -10.851112 0.915659 0.178249 -1.446504 0.000000 0.000000 0.000000 13.616388 12.031747 3.014883 -31.316944 11.160362 -28.442432 -178.565233 -70.541059 -179.947815 -6.718376 -0.014084 0.027149 0.041817 0.445336 0.000000 0.000000 0.000000 0.000000 0.000000 0.000000 0.000000 -2.730388 -16.220091 3.056004 11.907656 -6.965099 -25.801827 179.195153 74.160008 -179.996993 -0.679321 3.422690 -0.026755 0.125660 -0.404469 0.000000 0.000000 0.000000 0.000000 0.000000 0.000000 0.000000 
8.808353 21.813272 0.825486 63.850184 -84.017637 -1.452841 -2.652241 -3.564354 -3.060679 -0.393572 -3.552586 -2.478208 -1.343853 -3.696231 4.129674 6.279836 -20.575355 -10.940260 0.907899 0.181360 -1.504185 0.000000 0.000000 0.000000 13.646168 11.818766 3.194767 -31.119088 12.656032 -29.495220 -178.508673 -69.743972 -179.947059 -6.917558 0.079508 0.021890 0.045377 0.439225 0.000000 0.000000 0.000000 0.000000 0.000000 0.000000 0.000000 -2.562325 -15.766583 3.114224 12.343528 -7.533810 -26.826823 179.153515 73.427105 -179.995960 -0.520256 3.490333 -0.021767 0.122461 -0.406814 0.000000 0.000000 0.000000 0.000000 0.000000 0.000000 0.000000 
